<?xml version="1.0" encoding="UTF-8"?>
<svg width="101px" height="50px" viewBox="0 0 101 50" version="1.1" xmlns="http://www.w3.org/2000/svg" xmlns:xlink="http://www.w3.org/1999/xlink">
    <!-- Generator: Sketch 55.1 (78136) - https://sketchapp.com -->
    <title>Atoms/AMP Logo/Full/Blue Copy 2</title>
    <desc>Created with Sketch.</desc>
    <defs>
        <path d="M19.2342641,16.3218849 L14.0573003,25.6666667 L13.1193998,25.6666667 L14.0466735,19.577611 L11.1750389,19.5820729 C11.1750389,19.5820729 11.1479577,19.5828166 11.1349313,19.5828166 C10.8764602,19.5828166 10.6666667,19.3552578 10.6666667,19.0748995 C10.6666667,18.9544273 10.7701922,18.7506655 10.7701922,18.7506655 L15.9300161,9.41666667 L16.8836853,9.42075679 L15.9331013,15.51948 L18.8194763,15.5157617 C18.8194763,15.5157617 18.8506711,15.515018 18.8654115,15.515018 C19.1238826,15.515018 19.3333333,15.742205 19.3333333,16.0229351 C19.3333333,16.1367145 19.2925401,16.2367362 19.2339214,16.321513 L19.2342641,16.3218849 Z M15,4 C7.82038891,4 2,9.82038887 2,17 C2,24.1796111 7.82038891,30 15,30 C22.1799722,30 28,24.1796111 28,17 C28,9.82038887 22.1799722,4 15,4 L15,4 Z" id="path-1"></path>
        <filter x="-67.3%" y="-48.1%" width="234.6%" height="234.6%" filterUnits="objectBoundingBox" id="filter-2">
            <feOffset dx="0" dy="5" in="SourceAlpha" result="shadowOffsetOuter1"></feOffset>
            <feGaussianBlur stdDeviation="5" in="shadowOffsetOuter1" result="shadowBlurOuter1"></feGaussianBlur>
            <feColorMatrix values="0 0 0 0 0   0 0 0 0 0   0 0 0 0 0  0 0 0 0.196812726 0" type="matrix" in="shadowBlurOuter1"></feColorMatrix>
        </filter>
    </defs>
    <g id="Atoms/AMP-Logo/Full/Blue-Copy-2" stroke="none" stroke-width="1" fill="none" fill-rule="evenodd">
        <g id="AMP_Logo_blue" transform="translate(10.000000, 10.000000)">
            <g id="Atoms/AMP-Logo/Solo/blue">
                <g id="Shadow" fill-rule="nonzero" fill="black" fill-opacity="1">
                    <use filter="url(#filter-2)" xlink:href="#path-1"></use>
                </g>
                <path d="M0,15 C0,23.2841667 6.71583335,30 15,30 C23.2845834,30 30,23.2841667 30,15 C30,6.71583331 23.2845834,0 15,0 C6.71583335,0 0,6.71583331 0,15 Z" id="White-Fill" fill="#FFFFFF" fill-rule="evenodd"></path>
                <path d="M13.8508333,24.0979167 L12.7108333,24.0979167 L13.8379167,17.2745833 L10.3475,17.2795833 C10.3475,17.2795833 10.3145833,17.2804167 10.29875,17.2804167 C9.98458332,17.2804167 9.72958334,17.0254167 9.72958334,16.71125 C9.72958334,16.57625 9.85541665,16.3479167 9.85541665,16.3479167 L16.1270833,5.88833331 L17.28625,5.89291666 L16.1308334,12.7270833 L19.6391667,12.7229167 C19.6391667,12.7229167 19.6770834,12.7220833 19.695,12.7220833 C20.0091667,12.7220833 20.26375,12.9766667 20.26375,13.29125 C20.26375,13.41875 20.2141667,13.5308333 20.1429167,13.6258333 L13.8508333,24.0979167 Z M15,0 C6.71583335,0 0,6.71583331 0,15 C0,23.2841667 6.71583335,30 15,30 C23.2845834,30 30,23.2841667 30,15 C30,6.71583331 23.2845834,0 15,0 L15,0 Z" id="Main" fill="#005AF0" fill-rule="nonzero"></path>
            </g>
            <path d="M48.946,19.678 L44.176,19.678 L43.384,22 L40.144,22 L44.806,9.364 L48.352,9.364 L53.014,22 L49.738,22 L48.946,19.678 Z M48.154,17.338 L46.57,12.658 L44.968,17.338 L48.154,17.338 Z M68.512,9.364 L68.512,22 L65.434,22 L65.434,14.098 L62.698,22 L60.034,22 L57.28,14.08 L57.28,22 L54.202,22 L54.202,9.364 L57.964,9.364 L61.402,18.166 L64.768,9.364 L68.512,9.364 Z M73.714,17.536 L73.714,22 L70.636,22 L70.636,9.274 L75.622,9.274 C77.1340076,9.274 78.285996,9.64899625 79.078,10.399 C79.870004,11.1490038 80.266,12.1599936 80.266,13.432 C80.266,14.224004 80.0890018,14.9289969 79.735,15.547 C79.3809982,16.1650031 78.8560035,16.6509982 78.16,17.005 C77.4639965,17.3590018 76.618005,17.536 75.622,17.536 L73.714,17.536 Z M75.28,15.07 C76.5160062,15.07 77.134,14.5240055 77.134,13.432 C77.134,12.3159944 76.5160062,11.758 75.28,11.758 L73.714,11.758 L73.714,15.07 L75.28,15.07 Z" id="AMP" fill="#005AF0"></path>
        </g>
    </g>
</svg>